<svg id="visual" viewBox="0 0 900 600" width="900" height="600" xmlns="http://www.w3.org/2000/svg" xmlns:xlink="http://www.w3.org/1999/xlink" version="1.1"><g stroke-width="1" stroke-linejoin="bevel"><path d="M430 315L337 355L346 401Z" fill="#19435d" stroke="#19435d"></path><path d="M346 401L498 392L430 315Z" fill="#00101c" stroke="#00101c"></path><path d="M346 401L431 500L498 392Z" fill="#00101c" stroke="#00101c"></path><path d="M430 315L277 282L337 355Z" fill="#297ea6" stroke="#297ea6"></path><path d="M337 355L270 482L346 401Z" fill="#297ea6" stroke="#297ea6"></path><path d="M431 500L512 472L498 392Z" fill="#277297" stroke="#277297"></path><path d="M498 392L558 310L430 315Z" fill="#297ea6" stroke="#297ea6"></path><path d="M430 315L296 213L277 282Z" fill="#277297" stroke="#277297"></path><path d="M576 451L558 310L498 392Z" fill="#00101c" stroke="#00101c"></path><path d="M153 401L270 482L337 355Z" fill="#15384f" stroke="#15384f"></path><path d="M346 401L270 482L431 500Z" fill="#297ea6" stroke="#297ea6"></path><path d="M558 310L540 268L430 315Z" fill="#1d4e6b" stroke="#1d4e6b"></path><path d="M387 144L296 213L430 315Z" fill="#297ea6" stroke="#297ea6"></path><path d="M634 526L576 451L512 472Z" fill="#112e42" stroke="#112e42"></path><path d="M512 472L576 451L498 392Z" fill="#205a7a" stroke="#205a7a"></path><path d="M296 213L221 241L277 282Z" fill="#0c2435" stroke="#0c2435"></path><path d="M277 282L167 333L337 355Z" fill="#277297" stroke="#277297"></path><path d="M540 268L387 144L430 315Z" fill="#297ea6" stroke="#297ea6"></path><path d="M296 213L211 143L221 241Z" fill="#277297" stroke="#277297"></path><path d="M221 241L167 333L277 282Z" fill="#00101c" stroke="#00101c"></path><path d="M331 600L442 600L431 500Z" fill="#277297" stroke="#277297"></path><path d="M431 500L459 600L512 472Z" fill="#0c2435" stroke="#0c2435"></path><path d="M442 600L459 600L431 500Z" fill="#19435d" stroke="#19435d"></path><path d="M245 600L331 600L270 482Z" fill="#297ea6" stroke="#297ea6"></path><path d="M270 482L331 600L431 500Z" fill="#205a7a" stroke="#205a7a"></path><path d="M167 333L153 401L337 355Z" fill="#19435d" stroke="#19435d"></path><path d="M603 171L558 177L540 268Z" fill="#1d4e6b" stroke="#1d4e6b"></path><path d="M540 268L558 177L387 144Z" fill="#15384f" stroke="#15384f"></path><path d="M653 266L540 268L558 310Z" fill="#0c2435" stroke="#0c2435"></path><path d="M167 333L124 381L153 401Z" fill="#246688" stroke="#246688"></path><path d="M153 401L148 488L270 482Z" fill="#1d4e6b" stroke="#1d4e6b"></path><path d="M69 263L124 381L167 333Z" fill="#19435d" stroke="#19435d"></path><path d="M466 71L377 94L387 144Z" fill="#0c2435" stroke="#0c2435"></path><path d="M387 144L311 93L296 213Z" fill="#19435d" stroke="#19435d"></path><path d="M689 436L653 266L558 310Z" fill="#112e42" stroke="#112e42"></path><path d="M124 381L148 488L153 401Z" fill="#277297" stroke="#277297"></path><path d="M148 488L245 600L270 482Z" fill="#15384f" stroke="#15384f"></path><path d="M653 266L603 171L540 268Z" fill="#112e42" stroke="#112e42"></path><path d="M558 177L466 71L387 144Z" fill="#297ea6" stroke="#297ea6"></path><path d="M459 600L634 526L512 472Z" fill="#205a7a" stroke="#205a7a"></path><path d="M576 451L689 436L558 310Z" fill="#081a28" stroke="#081a28"></path><path d="M377 94L311 93L387 144Z" fill="#112e42" stroke="#112e42"></path><path d="M221 241L130 239L167 333Z" fill="#00101c" stroke="#00101c"></path><path d="M311 93L211 143L296 213Z" fill="#0c2435" stroke="#0c2435"></path><path d="M211 143L130 239L221 241Z" fill="#277297" stroke="#277297"></path><path d="M634 526L689 436L576 451Z" fill="#081a28" stroke="#081a28"></path><path d="M620 43L466 71L558 177Z" fill="#00101c" stroke="#00101c"></path><path d="M377 94L294 0L311 93Z" fill="#15384f" stroke="#15384f"></path><path d="M634 526L703 486L689 436Z" fill="#297ea6" stroke="#297ea6"></path><path d="M849 218L703 144L653 266Z" fill="#205a7a" stroke="#205a7a"></path><path d="M148 488L156 600L245 600Z" fill="#246688" stroke="#246688"></path><path d="M55 526L156 600L148 488Z" fill="#081a28" stroke="#081a28"></path><path d="M459 600L640 600L634 526Z" fill="#15384f" stroke="#15384f"></path><path d="M634 526L694 600L703 486Z" fill="#246688" stroke="#246688"></path><path d="M0 255L69 263L0 213Z" fill="#112e42" stroke="#112e42"></path><path d="M130 239L69 263L167 333Z" fill="#1d4e6b" stroke="#1d4e6b"></path><path d="M0 447L55 526L148 488Z" fill="#297ea6" stroke="#297ea6"></path><path d="M490 0L404 0L466 71Z" fill="#19435d" stroke="#19435d"></path><path d="M466 71L404 0L377 94Z" fill="#205a7a" stroke="#205a7a"></path><path d="M311 93L294 0L211 143Z" fill="#19435d" stroke="#19435d"></path><path d="M640 600L694 600L634 526Z" fill="#00101c" stroke="#00101c"></path><path d="M0 447L148 488L124 381Z" fill="#081a28" stroke="#081a28"></path><path d="M653 266L703 144L603 171Z" fill="#15384f" stroke="#15384f"></path><path d="M550 0L490 0L466 71Z" fill="#19435d" stroke="#19435d"></path><path d="M842 328L653 266L689 436Z" fill="#0c2435" stroke="#0c2435"></path><path d="M620 43L558 177L603 171Z" fill="#246688" stroke="#246688"></path><path d="M404 0L294 0L377 94Z" fill="#1d4e6b" stroke="#1d4e6b"></path><path d="M51 137L69 263L130 239Z" fill="#081a28" stroke="#081a28"></path><path d="M815 514L772 442L703 486Z" fill="#246688" stroke="#246688"></path><path d="M703 486L772 442L689 436Z" fill="#00101c" stroke="#00101c"></path><path d="M703 144L653 80L603 171Z" fill="#00101c" stroke="#00101c"></path><path d="M653 80L620 43L603 171Z" fill="#1d4e6b" stroke="#1d4e6b"></path><path d="M620 43L550 0L466 71Z" fill="#081a28" stroke="#081a28"></path><path d="M69 263L0 447L124 381Z" fill="#297ea6" stroke="#297ea6"></path><path d="M0 447L0 458L55 526Z" fill="#277297" stroke="#277297"></path><path d="M51 137L130 239L211 143Z" fill="#081a28" stroke="#081a28"></path><path d="M69 263L0 255L0 447Z" fill="#277297" stroke="#277297"></path><path d="M151 0L51 137L211 143Z" fill="#277297" stroke="#277297"></path><path d="M51 137L0 213L69 263Z" fill="#112e42" stroke="#112e42"></path><path d="M294 0L151 0L211 143Z" fill="#246688" stroke="#246688"></path><path d="M790 600L815 514L703 486Z" fill="#277297" stroke="#277297"></path><path d="M772 442L842 328L689 436Z" fill="#00101c" stroke="#00101c"></path><path d="M900 381L842 328L772 442Z" fill="#00101c" stroke="#00101c"></path><path d="M694 600L790 600L703 486Z" fill="#112e42" stroke="#112e42"></path><path d="M0 458L0 600L55 526Z" fill="#0c2435" stroke="#0c2435"></path><path d="M55 526L0 600L156 600Z" fill="#277297" stroke="#277297"></path><path d="M653 80L681 0L620 43Z" fill="#246688" stroke="#246688"></path><path d="M620 43L681 0L550 0Z" fill="#15384f" stroke="#15384f"></path><path d="M770 0L681 0L653 80Z" fill="#19435d" stroke="#19435d"></path><path d="M770 0L653 80L703 144Z" fill="#0c2435" stroke="#0c2435"></path><path d="M849 218L806 125L703 144Z" fill="#277297" stroke="#277297"></path><path d="M842 328L849 218L653 266Z" fill="#0c2435" stroke="#0c2435"></path><path d="M151 0L76 0L51 137Z" fill="#1d4e6b" stroke="#1d4e6b"></path><path d="M51 137L0 58L0 213Z" fill="#00101c" stroke="#00101c"></path><path d="M815 514L900 381L772 442Z" fill="#00101c" stroke="#00101c"></path><path d="M842 328L900 241L849 218Z" fill="#0c2435" stroke="#0c2435"></path><path d="M900 516L900 381L815 514Z" fill="#112e42" stroke="#112e42"></path><path d="M76 0L0 58L51 137Z" fill="#112e42" stroke="#112e42"></path><path d="M900 381L900 241L842 328Z" fill="#246688" stroke="#246688"></path><path d="M849 218L900 192L806 125Z" fill="#0c2435" stroke="#0c2435"></path><path d="M900 95L770 0L806 125Z" fill="#19435d" stroke="#19435d"></path><path d="M806 125L770 0L703 144Z" fill="#00101c" stroke="#00101c"></path><path d="M900 600L900 516L815 514Z" fill="#246688" stroke="#246688"></path><path d="M900 241L900 192L849 218Z" fill="#15384f" stroke="#15384f"></path><path d="M76 0L0 0L0 58Z" fill="#246688" stroke="#246688"></path><path d="M790 600L900 600L815 514Z" fill="#19435d" stroke="#19435d"></path><path d="M900 192L900 95L806 125Z" fill="#112e42" stroke="#112e42"></path><path d="M900 95L900 0L770 0Z" fill="#15384f" stroke="#15384f"></path></g></svg>